<svg width="28" height="27" viewBox="0 0 28 27" fill="none" xmlns="http://www.w3.org/2000/svg">
<g id="Group 59">
<path id="Vector" d="M16.58 13.519C16.58 14.8764 15.4795 15.977 14.122 15.977C12.7645 15.977 11.6639 14.8764 11.6639 13.519C11.6639 12.1615 12.7645 11.0609 14.122 11.0609C15.4795 11.0609 16.58 12.1615 16.58 13.519Z" fill="url(#paint0_linear_69_1129)"/>
<path id="Vector_2" d="M18.2443 6.14478H10.0026C8.20859 6.14478 6.74927 7.6041 6.74927 9.39808V17.6398C6.74927 19.4337 8.20859 20.8931 10.0026 20.8931H18.2443C20.0382 20.8931 21.4976 19.4337 21.4976 17.6398V9.39808C21.4976 7.6041 20.0382 6.14478 18.2443 6.14478ZM14.1234 17.5855C11.8811 17.5855 10.0568 15.7613 10.0568 13.5189C10.0568 11.2766 11.8811 9.4523 14.1234 9.4523C16.3658 9.4523 18.19 11.2766 18.19 13.5189C18.19 15.7613 16.3658 17.5855 14.1234 17.5855ZM18.7865 9.66918C18.3372 9.66918 17.9732 9.30509 17.9732 8.85586C17.9732 8.40662 18.3372 8.04253 18.7865 8.04253C19.2357 8.04253 19.5998 8.40662 19.5998 8.85586C19.5998 9.30509 19.2357 9.66918 18.7865 9.66918Z" fill="url(#paint1_linear_69_1129)"/>
<path id="Vector_3" d="M20.3786 0H7.61707C3.69172 0 0.498047 3.19367 0.498047 7.11903V19.8805C0.498047 23.8059 3.69172 26.9996 7.61707 26.9996H20.3786C24.3039 26.9996 27.4976 23.8059 27.4976 19.8805V7.11903C27.4976 3.19367 24.3039 0 20.3786 0ZM22.7516 17.5075C22.7516 20.1244 20.6225 22.2535 18.0056 22.2535H9.99008C7.37318 22.2535 5.24406 20.1244 5.24406 17.5075V9.49203C5.24406 6.87513 7.37318 4.74602 9.99008 4.74602H18.0056C20.6225 4.74602 22.7516 6.87513 22.7516 9.49203V17.5075Z" fill="url(#paint2_linear_69_1129)"/>
</g>
<defs>
<linearGradient id="paint0_linear_69_1129" x1="14.122" y1="11.0609" x2="14.122" y2="15.977" gradientUnits="userSpaceOnUse">
<stop stop-color="white"/>
<stop offset="1" stop-color="#DAC8FF"/>
</linearGradient>
<linearGradient id="paint1_linear_69_1129" x1="14.1234" y1="6.14478" x2="14.1234" y2="20.8931" gradientUnits="userSpaceOnUse">
<stop stop-color="white"/>
<stop offset="1" stop-color="#DAC8FF"/>
</linearGradient>
<linearGradient id="paint2_linear_69_1129" x1="13.9978" y1="0" x2="13.9978" y2="26.9996" gradientUnits="userSpaceOnUse">
<stop stop-color="white"/>
<stop offset="1" stop-color="#DAC8FF"/>
</linearGradient>
</defs>
</svg>
