<svg xmlns="http://www.w3.org/2000/svg" width="153" height="181" viewBox="0 0 153 181" fill="none">
  <path d="M-22.62 2.69C-22.62 4.17 -23.82 5.38 -25.31 5.38C-26.8 5.38 -28 4.18 -28 2.69C-28 1.2 -26.79 0 -25.31 0C-23.83 0 -22.62 1.21 -22.62 2.69Z" fill="url(#paint0_linear_69_989)"/>
  <path d="M18.6 0C17.11 0 15.91 1.21 15.91 2.69C15.91 4.17 17.11 5.38 18.6 5.38C20.09 5.38 21.29 4.17 21.29 2.69C21.29 1.21 20.09 0 18.6 0Z" fill="url(#paint1_linear_69_989)"/>
  <path d="M62.51 0C61.03 0 59.82 1.21 59.82 2.69C59.82 4.17 61.03 5.38 62.51 5.38C63.99 5.38 65.21 4.17 65.21 2.69C65.21 1.21 64 0 62.51 0Z" fill="url(#paint2_linear_69_989)"/>
  <path d="M106.41 0C104.92 0 103.72 1.21 103.72 2.69C103.72 4.17 104.92 5.38 106.41 5.38C107.9 5.38 109.11 4.17 109.11 2.69C109.11 1.21 107.9 0 106.41 0Z" fill="url(#paint3_linear_69_989)"/>
  <path d="M150.32 5.39C151.81 5.39 153.01 4.18 153.01 2.7C153.01 1.22 151.8 0.01 150.32 0.01C148.84 0.01 147.63 1.22 147.63 2.7C147.63 4.18 148.84 5.39 150.32 5.39Z" fill="url(#paint4_linear_69_989)"/>
  <path d="M-25.31 43.9C-26.79 43.9 -28 45.11 -28 46.59C-28 48.07 -26.79 49.28 -25.31 49.28C-23.83 49.28 -22.62 48.07 -22.62 46.59C-22.62 45.11 -23.82 43.9 -25.31 43.9Z" fill="url(#paint5_linear_69_989)"/>
  <path d="M18.6 43.9C17.11 43.9 15.91 45.11 15.91 46.59C15.91 48.07 17.11 49.28 18.6 49.28C20.09 49.28 21.29 48.07 21.29 46.59C21.29 45.11 20.09 43.9 18.6 43.9Z" fill="url(#paint6_linear_69_989)"/>
  <path d="M62.51 43.9C61.03 43.9 59.82 45.11 59.82 46.59C59.82 48.07 61.03 49.28 62.51 49.28C63.99 49.28 65.21 48.07 65.21 46.59C65.21 45.11 64 43.9 62.51 43.9Z" fill="url(#paint7_linear_69_989)"/>
  <path d="M106.41 43.9C104.92 43.9 103.72 45.11 103.72 46.59C103.72 48.07 104.92 49.28 106.41 49.28C107.9 49.28 109.11 48.07 109.11 46.59C109.11 45.11 107.9 43.9 106.41 43.9Z" fill="url(#paint8_linear_69_989)"/>
  <path d="M150.32 43.9C148.83 43.9 147.63 45.11 147.63 46.59C147.63 48.07 148.84 49.28 150.32 49.28C151.8 49.28 153.01 48.07 153.01 46.59C153.01 45.11 151.8 43.9 150.32 43.9Z" fill="url(#paint9_linear_69_989)"/>
  <path d="M-25.31 87.81C-26.79 87.81 -28 89.01 -28 90.5C-28 91.99 -26.79 93.19 -25.31 93.19C-23.83 93.19 -22.62 91.99 -22.62 90.5C-22.62 89.01 -23.82 87.81 -25.31 87.81Z" fill="url(#paint10_linear_69_989)"/>
  <path d="M18.6 87.81C17.11 87.81 15.91 89.01 15.91 90.5C15.91 91.99 17.11 93.19 18.6 93.19C20.09 93.19 21.29 91.99 21.29 90.5C21.29 89.01 20.09 87.81 18.6 87.81Z" fill="url(#paint11_linear_69_989)"/>
  <path d="M62.51 87.81C61.03 87.81 59.82 89.01 59.82 90.5C59.82 91.99 61.03 93.19 62.51 93.19C63.99 93.19 65.21 91.99 65.21 90.5C65.21 89.01 64 87.81 62.51 87.81Z" fill="url(#paint12_linear_69_989)"/>
  <path d="M106.41 87.81C104.92 87.81 103.72 89.01 103.72 90.5C103.72 91.99 104.92 93.19 106.41 93.19C107.9 93.19 109.11 91.99 109.11 90.5C109.11 89.01 107.9 87.81 106.41 87.81Z" fill="url(#paint13_linear_69_989)"/>
  <path d="M150.32 87.81C148.83 87.81 147.63 89.01 147.63 90.5C147.63 91.99 148.84 93.19 150.32 93.19C151.8 93.19 153.01 91.99 153.01 90.5C153.01 89.01 151.8 87.81 150.32 87.81Z" fill="url(#paint14_linear_69_989)"/>
  <path d="M-25.31 131.72C-26.79 131.72 -28 132.93 -28 134.41C-28 135.89 -26.79 137.1 -25.31 137.1C-23.83 137.1 -22.62 135.89 -22.62 134.41C-22.62 132.93 -23.82 131.72 -25.31 131.72Z" fill="url(#paint15_linear_69_989)"/>
  <path d="M18.6 131.72C17.11 131.72 15.91 132.93 15.91 134.41C15.91 135.89 17.11 137.1 18.6 137.1C20.09 137.1 21.29 135.89 21.29 134.41C21.29 132.93 20.09 131.72 18.6 131.72Z" fill="url(#paint16_linear_69_989)"/>
  <path d="M62.51 131.72C61.03 131.72 59.82 132.93 59.82 134.41C59.82 135.89 61.03 137.1 62.51 137.1C63.99 137.1 65.21 135.89 65.21 134.41C65.21 132.93 64 131.72 62.51 131.72Z" fill="url(#paint17_linear_69_989)"/>
  <path d="M106.41 131.72C104.92 131.72 103.72 132.93 103.72 134.41C103.72 135.89 104.92 137.1 106.41 137.1C107.9 137.1 109.11 135.89 109.11 134.41C109.11 132.93 107.9 131.72 106.41 131.72Z" fill="url(#paint18_linear_69_989)"/>
  <path d="M150.32 131.72C148.83 131.72 147.63 132.93 147.63 134.41C147.63 135.89 148.84 137.1 150.32 137.1C151.8 137.1 153.01 135.89 153.01 134.41C153.01 132.93 151.8 131.72 150.32 131.72Z" fill="url(#paint19_linear_69_989)"/>
  <path d="M-25.31 175.62C-26.79 175.62 -28 176.83 -28 178.32C-28 179.81 -26.79 181.01 -25.31 181.01C-23.83 181.01 -22.62 179.81 -22.62 178.32C-22.62 176.83 -23.82 175.62 -25.31 175.62Z" fill="url(#paint20_linear_69_989)"/>
  <path d="M18.6 175.62C17.11 175.62 15.91 176.83 15.91 178.32C15.91 179.81 17.11 181.01 18.6 181.01C20.09 181.01 21.29 179.81 21.29 178.32C21.29 176.83 20.09 175.62 18.6 175.62Z" fill="url(#paint21_linear_69_989)"/>
  <path d="M62.51 175.62C61.03 175.62 59.82 176.83 59.82 178.32C59.82 179.81 61.03 181.01 62.51 181.01C63.99 181.01 65.21 179.81 65.21 178.32C65.21 176.83 64 175.62 62.51 175.62Z" fill="url(#paint22_linear_69_989)"/>
  <path d="M106.41 175.62C104.92 175.62 103.72 176.83 103.72 178.32C103.72 179.81 104.92 181.01 106.41 181.01C107.9 181.01 109.11 179.81 109.11 178.32C109.11 176.83 107.9 175.62 106.41 175.62Z" fill="url(#paint23_linear_69_989)"/>
  <path d="M150.32 175.62C148.83 175.62 147.63 176.83 147.63 178.32C147.63 179.81 148.84 181.01 150.32 181.01C151.8 181.01 153.01 179.81 153.01 178.32C153.01 176.83 151.8 175.62 150.32 175.62Z" fill="url(#paint24_linear_69_989)"/>
  <defs>
    <linearGradient id="paint0_linear_69_989" x1="62.505" y1="0" x2="62.505" y2="181.01" gradientUnits="userSpaceOnUse">
      <stop stop-color="white"/>
      <stop offset="1" stop-color="#DAC8FF"/>
    </linearGradient>
    <linearGradient id="paint1_linear_69_989" x1="62.505" y1="0" x2="62.505" y2="181.01" gradientUnits="userSpaceOnUse">
      <stop stop-color="white"/>
      <stop offset="1" stop-color="#DAC8FF"/>
    </linearGradient>
    <linearGradient id="paint2_linear_69_989" x1="62.505" y1="0" x2="62.505" y2="181.01" gradientUnits="userSpaceOnUse">
      <stop stop-color="white"/>
      <stop offset="1" stop-color="#DAC8FF"/>
    </linearGradient>
    <linearGradient id="paint3_linear_69_989" x1="62.505" y1="0" x2="62.505" y2="181.01" gradientUnits="userSpaceOnUse">
      <stop stop-color="white"/>
      <stop offset="1" stop-color="#DAC8FF"/>
    </linearGradient>
    <linearGradient id="paint4_linear_69_989" x1="62.505" y1="0" x2="62.505" y2="181.01" gradientUnits="userSpaceOnUse">
      <stop stop-color="white"/>
      <stop offset="1" stop-color="#DAC8FF"/>
    </linearGradient>
    <linearGradient id="paint5_linear_69_989" x1="62.505" y1="0" x2="62.505" y2="181.01" gradientUnits="userSpaceOnUse">
      <stop stop-color="white"/>
      <stop offset="1" stop-color="#DAC8FF"/>
    </linearGradient>
    <linearGradient id="paint6_linear_69_989" x1="62.505" y1="0" x2="62.505" y2="181.01" gradientUnits="userSpaceOnUse">
      <stop stop-color="white"/>
      <stop offset="1" stop-color="#DAC8FF"/>
    </linearGradient>
    <linearGradient id="paint7_linear_69_989" x1="62.505" y1="0" x2="62.505" y2="181.01" gradientUnits="userSpaceOnUse">
      <stop stop-color="white"/>
      <stop offset="1" stop-color="#DAC8FF"/>
    </linearGradient>
    <linearGradient id="paint8_linear_69_989" x1="62.505" y1="0" x2="62.505" y2="181.01" gradientUnits="userSpaceOnUse">
      <stop stop-color="white"/>
      <stop offset="1" stop-color="#DAC8FF"/>
    </linearGradient>
    <linearGradient id="paint9_linear_69_989" x1="62.505" y1="0" x2="62.505" y2="181.01" gradientUnits="userSpaceOnUse">
      <stop stop-color="white"/>
      <stop offset="1" stop-color="#DAC8FF"/>
    </linearGradient>
    <linearGradient id="paint10_linear_69_989" x1="62.505" y1="0" x2="62.505" y2="181.01" gradientUnits="userSpaceOnUse">
      <stop stop-color="white"/>
      <stop offset="1" stop-color="#DAC8FF"/>
    </linearGradient>
    <linearGradient id="paint11_linear_69_989" x1="62.505" y1="0" x2="62.505" y2="181.01" gradientUnits="userSpaceOnUse">
      <stop stop-color="white"/>
      <stop offset="1" stop-color="#DAC8FF"/>
    </linearGradient>
    <linearGradient id="paint12_linear_69_989" x1="62.505" y1="0" x2="62.505" y2="181.01" gradientUnits="userSpaceOnUse">
      <stop stop-color="white"/>
      <stop offset="1" stop-color="#DAC8FF"/>
    </linearGradient>
    <linearGradient id="paint13_linear_69_989" x1="62.505" y1="0" x2="62.505" y2="181.01" gradientUnits="userSpaceOnUse">
      <stop stop-color="white"/>
      <stop offset="1" stop-color="#DAC8FF"/>
    </linearGradient>
    <linearGradient id="paint14_linear_69_989" x1="62.505" y1="0" x2="62.505" y2="181.01" gradientUnits="userSpaceOnUse">
      <stop stop-color="white"/>
      <stop offset="1" stop-color="#DAC8FF"/>
    </linearGradient>
    <linearGradient id="paint15_linear_69_989" x1="62.505" y1="0" x2="62.505" y2="181.01" gradientUnits="userSpaceOnUse">
      <stop stop-color="white"/>
      <stop offset="1" stop-color="#DAC8FF"/>
    </linearGradient>
    <linearGradient id="paint16_linear_69_989" x1="62.505" y1="0" x2="62.505" y2="181.01" gradientUnits="userSpaceOnUse">
      <stop stop-color="white"/>
      <stop offset="1" stop-color="#DAC8FF"/>
    </linearGradient>
    <linearGradient id="paint17_linear_69_989" x1="62.505" y1="0" x2="62.505" y2="181.01" gradientUnits="userSpaceOnUse">
      <stop stop-color="white"/>
      <stop offset="1" stop-color="#DAC8FF"/>
    </linearGradient>
    <linearGradient id="paint18_linear_69_989" x1="62.505" y1="0" x2="62.505" y2="181.01" gradientUnits="userSpaceOnUse">
      <stop stop-color="white"/>
      <stop offset="1" stop-color="#DAC8FF"/>
    </linearGradient>
    <linearGradient id="paint19_linear_69_989" x1="62.505" y1="0" x2="62.505" y2="181.01" gradientUnits="userSpaceOnUse">
      <stop stop-color="white"/>
      <stop offset="1" stop-color="#DAC8FF"/>
    </linearGradient>
    <linearGradient id="paint20_linear_69_989" x1="62.505" y1="0" x2="62.505" y2="181.01" gradientUnits="userSpaceOnUse">
      <stop stop-color="white"/>
      <stop offset="1" stop-color="#DAC8FF"/>
    </linearGradient>
    <linearGradient id="paint21_linear_69_989" x1="62.505" y1="0" x2="62.505" y2="181.01" gradientUnits="userSpaceOnUse">
      <stop stop-color="white"/>
      <stop offset="1" stop-color="#DAC8FF"/>
    </linearGradient>
    <linearGradient id="paint22_linear_69_989" x1="62.505" y1="0" x2="62.505" y2="181.01" gradientUnits="userSpaceOnUse">
      <stop stop-color="white"/>
      <stop offset="1" stop-color="#DAC8FF"/>
    </linearGradient>
    <linearGradient id="paint23_linear_69_989" x1="62.505" y1="0" x2="62.505" y2="181.01" gradientUnits="userSpaceOnUse">
      <stop stop-color="white"/>
      <stop offset="1" stop-color="#DAC8FF"/>
    </linearGradient>
    <linearGradient id="paint24_linear_69_989" x1="62.505" y1="0" x2="62.505" y2="181.01" gradientUnits="userSpaceOnUse">
      <stop stop-color="white"/>
      <stop offset="1" stop-color="#DAC8FF"/>
    </linearGradient>
  </defs>
</svg>