<svg xmlns="http://www.w3.org/2000/svg" width="181" height="181" viewBox="0 0 181 181" fill="none">
  <g clip-path="url(#clip0_69_774)">
    <path d="M5.38 2.69C5.38 4.17 4.18 5.38 2.69 5.38C1.2 5.38 0 4.18 0 2.69C0 1.2 1.21 0 2.69 0C4.17 0 5.38 1.21 5.38 2.69Z" fill="white"/>
    <path d="M46.6 0C45.11 0 43.91 1.21 43.91 2.69C43.91 4.17 45.11 5.38 46.6 5.38C48.09 5.38 49.29 4.17 49.29 2.69C49.29 1.21 48.09 0 46.6 0Z" fill="white"/>
    <path d="M90.5099 0C89.0299 0 87.8199 1.21 87.8199 2.69C87.8199 4.17 89.0299 5.38 90.5099 5.38C91.9899 5.38 93.2099 4.17 93.2099 2.69C93.2099 1.21 91.9999 0 90.5099 0Z" fill="white"/>
    <path d="M134.41 0C132.92 0 131.72 1.21 131.72 2.69C131.72 4.17 132.92 5.38 134.41 5.38C135.9 5.38 137.11 4.17 137.11 2.69C137.11 1.21 135.9 0 134.41 0Z" fill="white"/>
    <path d="M178.32 5.39001C179.81 5.39001 181.01 4.18001 181.01 2.70001C181.01 1.22001 179.8 0.0100098 178.32 0.0100098C176.84 0.0100098 175.63 1.22001 175.63 2.70001C175.63 4.18001 176.84 5.39001 178.32 5.39001Z" fill="white"/>
    <path d="M2.69 43.9C1.21 43.9 0 45.11 0 46.59C0 48.07 1.21 49.28 2.69 49.28C4.17 49.28 5.38 48.07 5.38 46.59C5.38 45.11 4.18 43.9 2.69 43.9Z" fill="white"/>
    <path d="M46.6 43.9C45.11 43.9 43.91 45.11 43.91 46.59C43.91 48.07 45.11 49.28 46.6 49.28C48.09 49.28 49.29 48.07 49.29 46.59C49.29 45.11 48.09 43.9 46.6 43.9Z" fill="white"/>
    <path d="M90.5099 43.9C89.0299 43.9 87.8199 45.11 87.8199 46.59C87.8199 48.07 89.0299 49.28 90.5099 49.28C91.9899 49.28 93.2099 48.07 93.2099 46.59C93.2099 45.11 91.9999 43.9 90.5099 43.9Z" fill="white"/>
    <path d="M134.41 43.9C132.92 43.9 131.72 45.11 131.72 46.59C131.72 48.07 132.92 49.28 134.41 49.28C135.9 49.28 137.11 48.07 137.11 46.59C137.11 45.11 135.9 43.9 134.41 43.9Z" fill="white"/>
    <path d="M178.32 43.9C176.83 43.9 175.63 45.11 175.63 46.59C175.63 48.07 176.84 49.28 178.32 49.28C179.8 49.28 181.01 48.07 181.01 46.59C181.01 45.11 179.8 43.9 178.32 43.9Z" fill="white"/>
    <path d="M2.69 87.8101C1.21 87.8101 0 89.0101 0 90.5001C0 91.9901 1.21 93.1901 2.69 93.1901C4.17 93.1901 5.38 91.9901 5.38 90.5001C5.38 89.0101 4.18 87.8101 2.69 87.8101Z" fill="white"/>
    <path d="M46.6 87.8101C45.11 87.8101 43.91 89.0101 43.91 90.5001C43.91 91.9901 45.11 93.1901 46.6 93.1901C48.09 93.1901 49.29 91.9901 49.29 90.5001C49.29 89.0101 48.09 87.8101 46.6 87.8101Z" fill="white"/>
    <path d="M90.5099 87.8101C89.0299 87.8101 87.8199 89.0101 87.8199 90.5001C87.8199 91.9901 89.0299 93.1901 90.5099 93.1901C91.9899 93.1901 93.2099 91.9901 93.2099 90.5001C93.2099 89.0101 91.9999 87.8101 90.5099 87.8101Z" fill="white"/>
    <path d="M134.41 87.8101C132.92 87.8101 131.72 89.0101 131.72 90.5001C131.72 91.9901 132.92 93.1901 134.41 93.1901C135.9 93.1901 137.11 91.9901 137.11 90.5001C137.11 89.0101 135.9 87.8101 134.41 87.8101Z" fill="white"/>
    <path d="M178.32 87.8101C176.83 87.8101 175.63 89.0101 175.63 90.5001C175.63 91.9901 176.84 93.1901 178.32 93.1901C179.8 93.1901 181.01 91.9901 181.01 90.5001C181.01 89.0101 179.8 87.8101 178.32 87.8101Z" fill="white"/>
    <path d="M2.69 131.72C1.21 131.72 0 132.93 0 134.41C0 135.89 1.21 137.1 2.69 137.1C4.17 137.1 5.38 135.89 5.38 134.41C5.38 132.93 4.18 131.72 2.69 131.72Z" fill="white"/>
    <path d="M46.6 131.72C45.11 131.72 43.91 132.93 43.91 134.41C43.91 135.89 45.11 137.1 46.6 137.1C48.09 137.1 49.29 135.89 49.29 134.41C49.29 132.93 48.09 131.72 46.6 131.72Z" fill="white"/>
    <path d="M90.5099 131.72C89.0299 131.72 87.8199 132.93 87.8199 134.41C87.8199 135.89 89.0299 137.1 90.5099 137.1C91.9899 137.1 93.2099 135.89 93.2099 134.41C93.2099 132.93 91.9999 131.72 90.5099 131.72Z" fill="white"/>
    <path d="M134.41 131.72C132.92 131.72 131.72 132.93 131.72 134.41C131.72 135.89 132.92 137.1 134.41 137.1C135.9 137.1 137.11 135.89 137.11 134.41C137.11 132.93 135.9 131.72 134.41 131.72Z" fill="white"/>
    <path d="M178.32 131.72C176.83 131.72 175.63 132.93 175.63 134.41C175.63 135.89 176.84 137.1 178.32 137.1C179.8 137.1 181.01 135.89 181.01 134.41C181.01 132.93 179.8 131.72 178.32 131.72Z" fill="white"/>
    <path d="M2.69 175.62C1.21 175.62 0 176.83 0 178.32C0 179.81 1.21 181.01 2.69 181.01C4.17 181.01 5.38 179.81 5.38 178.32C5.38 176.83 4.18 175.62 2.69 175.62Z" fill="white"/>
    <path d="M46.6 175.62C45.11 175.62 43.91 176.83 43.91 178.32C43.91 179.81 45.11 181.01 46.6 181.01C48.09 181.01 49.29 179.81 49.29 178.32C49.29 176.83 48.09 175.62 46.6 175.62Z" fill="white"/>
    <path d="M90.5099 175.62C89.0299 175.62 87.8199 176.83 87.8199 178.32C87.8199 179.81 89.0299 181.01 90.5099 181.01C91.9899 181.01 93.2099 179.81 93.2099 178.32C93.2099 176.83 91.9999 175.62 90.5099 175.62Z" fill="white"/>
    <path d="M134.41 175.62C132.92 175.62 131.72 176.83 131.72 178.32C131.72 179.81 132.92 181.01 134.41 181.01C135.9 181.01 137.11 179.81 137.11 178.32C137.11 176.83 135.9 175.62 134.41 175.62Z" fill="white"/>
    <path d="M178.32 175.62C176.83 175.62 175.63 176.83 175.63 178.32C175.63 179.81 176.84 181.01 178.32 181.01C179.8 181.01 181.01 179.81 181.01 178.32C181.01 176.83 179.8 175.62 178.32 175.62Z" fill="white"/>
  </g>
  <defs>
    <clipPath id="clip0_69_774">
      <rect width="181.01" height="181" fill="white"/>
    </clipPath>
  </defs>
</svg>