<svg xmlns="http://www.w3.org/2000/svg" width="30" height="30" viewBox="0 0 65 65" fill="none">
<path d="M63.3967 39.435L51.6429 32.3287C51.3183 32.1322 50.9463 32.0282 50.5671 32.0282C50.1879 32.0282 49.816 32.1322 49.4914 32.3287L45.1491 34.955L37.101 29.5744L45.2981 24.6174C45.6055 24.4302 45.8599 24.1671 46.037 23.8532C46.214 23.5393 46.3078 23.1851 46.3094 22.8246V9.21821C46.3087 8.85701 46.2154 8.50205 46.0385 8.18737C45.8616 7.87269 45.607 7.60884 45.2992 7.42111L33.5454 0.313792C33.2208 0.117212 32.8489 0.0133057 32.4697 0.0133057C32.0905 0.0133057 31.7185 0.117212 31.3939 0.313792L19.6412 7.42111C19.3334 7.60884 19.0788 7.87269 18.9019 8.18737C18.725 8.50205 18.6317 8.85701 18.6309 9.21821V22.8246C18.6317 23.1858 18.725 23.5407 18.9019 23.8554C19.0788 24.1701 19.3334 24.4339 19.6412 24.6217L27.8383 29.5786L19.7902 34.955L15.4468 32.3287C15.1223 32.1322 14.7503 32.0282 14.3711 32.0282C13.9919 32.0282 13.6199 32.1322 13.2954 32.3287L1.54265 39.4361C1.23515 39.6241 0.980904 39.888 0.804214 40.2026C0.627523 40.5173 0.534297 40.8721 0.533447 41.2332L0.533447 54.8395C0.53443 55.2008 0.627818 55.5558 0.804689 55.8706C0.98156 56.1855 1.236 56.4495 1.54371 56.6377L13.2975 63.7439C13.6222 63.9402 13.9941 64.0439 14.3732 64.0439C14.7524 64.0439 15.1243 63.9402 15.449 63.7439L27.2028 56.6366C27.5103 56.4486 27.7645 56.1847 27.9412 55.87C28.1179 55.5554 28.2111 55.2006 28.212 54.8395V50.1707H36.7284V54.8395C36.7294 55.2008 36.8228 55.5558 36.9997 55.8706C37.1765 56.1855 37.431 56.4495 37.7387 56.6377L49.4925 63.7439C49.8171 63.9402 50.1891 64.0439 50.5682 64.0439C50.9473 64.0439 51.3193 63.9402 51.6439 63.7439L63.3977 56.6366C63.7052 56.4486 63.9595 56.1847 64.1362 55.87C64.3128 55.5554 64.4061 55.2006 64.4069 54.8395V41.2332C64.4059 40.8718 64.3126 40.5168 64.1357 40.202C63.9588 39.8872 63.7044 39.6231 63.3967 39.435ZM50.5443 34.1568L61.5773 40.8287L50.5549 47.4825L39.5548 40.8287L50.5443 34.1568ZM33.5347 29.2692V17.3169C33.5496 17.3084 33.5677 17.3052 33.5826 17.2966L44.1803 10.883L44.1974 22.7936L33.5347 29.2692ZM32.4468 2.14185L43.4798 8.81376L32.4574 15.4686L21.4573 8.81376L32.4468 2.14185ZM20.743 10.8745L31.3662 17.302C31.379 17.3095 31.3929 17.3116 31.4056 17.318V29.2446L20.76 22.8246L20.743 10.8745ZM14.3493 34.1568L25.3824 40.8287L14.3599 47.4825L3.35985 40.8287L14.3493 34.1568ZM2.66256 54.8395L2.64659 42.8873L13.2688 49.3169C13.2815 49.3244 13.2954 49.3265 13.3081 49.334V61.2596L2.66256 54.8395ZM15.4373 61.2841V49.3319C15.4522 49.3233 15.4703 49.3212 15.4852 49.3116L26.0828 42.8979L26.0999 54.8096L15.4373 61.2841ZM28.212 48.0363V41.2332C28.211 40.8718 28.1176 40.5168 27.9407 40.202C27.7638 39.8872 27.5094 39.6231 27.2017 39.435L21.8065 36.1737L29.8546 30.7973L31.395 31.729C31.7197 31.9252 32.0916 32.0289 32.4707 32.0289C32.8498 32.0289 33.2218 31.9252 33.5465 31.729L35.0858 30.7973L43.1339 36.1737L37.7376 39.4361C37.4301 39.6241 37.1759 39.888 36.9992 40.2026C36.8225 40.5173 36.7293 40.8721 36.7284 41.2332V48.0363H28.212ZM38.8575 54.8395L38.8416 42.8873L49.4637 49.3169C49.4765 49.3244 49.4903 49.3265 49.5031 49.334V61.2596L38.8575 54.8395ZM51.6322 61.2841V49.3319C51.6471 49.3233 51.6652 49.3212 51.6801 49.3116L62.2778 42.8979L62.2948 54.8096L51.6322 61.2841Z" fill="#FF6B00"/>
</svg>